<svg xmlns="http://www.w3.org/2000/svg" viewBox="0 0 58 58" width="512" height="512"><path d="M0 28h28V0H0v28zm8-16h4V8a2 2 0 0 1 4 0v4h4a2 2 0 0 1 0 4h-4v4a2 2 0 0 1-4 0v-4H8a2 2 0 0 1 0-4zM30 0v28h28V0H30zm20 16H38a2 2 0 0 1 0-4h12a2 2 0 0 1 0 4zM30 58h28V30H30v28zm8-19h12a2 2 0 0 1 0 4H38a2 2 0 0 1 0-4zm0 6h12a2 2 0 0 1 0 4H38a2 2 0 0 1 0-4zM0 58h28V30H0v28zm7.586-17.586a2 2 0 1 1 2.828-2.828L14 41.172l3.586-3.586a2 2 0 1 1 2.828 2.828L16.828 44l3.586 3.586a2 2 0 1 1-2.828 2.828L14 46.828l-3.586 3.586c-.39.391-.902.586-1.414.586s-1.024-.195-1.414-.586a2 2 0 0 1 0-2.828L11.172 44l-3.586-3.586z" fill="#FFF"/></svg>